<?xml version="1.0" encoding="utf-8"?>
<!-- Generator: Adobe Illustrator 17.0.0, SVG Export Plug-In . SVG Version: 6.00 Build 0)  -->
<!DOCTYPE svg PUBLIC "-//W3C//DTD SVG 1.1//EN" "http://www.w3.org/Graphics/SVG/1.1/DTD/svg11.dtd">
<svg version="1.1" id="Layer_1" xmlns="http://www.w3.org/2000/svg" xmlns:xlink="http://www.w3.org/1999/xlink" x="0px" y="0px"
	 width="135.16px" height="21.187px" viewBox="0 0 135.16 21.187" enable-background="new 0 0 135.16 21.187" xml:space="preserve">
<g>
	<path fill="#241F20" d="M10.19,9.513C9.642,9.384,9.126,9.352,8.642,9.352c-1.967,0-3.741,1.161-3.741,4.353v6.998H0V4.676h4.74
		v2.161C5.579,5.031,7.61,4.514,8.9,4.514c0.484,0,0.967,0.065,1.29,0.162V9.513z"/>
	<path fill="#241F20" d="M27.54,16.092c-0.774,2.773-3.322,5.095-7.385,5.095c-4.418,0-8.352-3.16-8.352-8.546
		c0-5.159,3.838-8.449,7.997-8.449c4.967,0,8.03,3.064,8.03,8.224c0,0.677-0.064,1.419-0.096,1.515H16.576
		c0.097,1.806,1.741,3.096,3.644,3.096c1.774,0,2.773-0.839,3.225-2.096L27.54,16.092z M23.09,10.771
		c-0.064-1.225-0.903-2.708-3.225-2.708c-2.064,0-3.096,1.515-3.192,2.708H23.09z"/>
	<path fill="#241F20" d="M34.701,12.705c0,2.548,1.709,3.967,3.741,3.967c1.903,0,2.967-1.194,3.321-2.386l4.322,1.322
		c-0.71,2.805-3.354,5.578-7.643,5.578c-4.772,0-8.61-3.514-8.61-8.481c0-4.998,3.741-8.513,8.449-8.513
		c4.418,0,6.998,2.709,7.707,5.579l-4.386,1.322c-0.355-1.225-1.322-2.386-3.224-2.386C36.346,8.707,34.701,10.126,34.701,12.705"/>
	<path fill="#241F20" d="M58.34,19.091c-0.838,1.386-2.677,1.967-4.289,1.967c-3.902,0-6.095-2.838-6.095-6.256V4.676h4.902v9.094
		c0,1.548,0.838,2.773,2.58,2.773c1.644,0,2.676-1.129,2.676-2.741V4.676h4.902v13.157c0,1.451,0.129,2.612,0.161,2.87h-4.708
		C58.404,20.413,58.34,19.51,58.34,19.091"/>
	<path fill="#241F20" d="M75.593,9.513c-0.549-0.129-1.064-0.161-1.548-0.161c-1.967,0-3.741,1.161-3.741,4.353v6.998h-4.901V4.676
		h4.74v2.161c0.839-1.806,2.87-2.323,4.16-2.323c0.484,0,0.967,0.065,1.29,0.162V9.513z"/>
	<path fill="#241F20" d="M88.107,9.513c-0.549-0.129-1.064-0.161-1.548-0.161c-1.967,0-3.741,1.161-3.741,4.353v6.998h-4.901V4.676
		h4.74v2.161c0.839-1.806,2.87-2.323,4.16-2.323c0.484,0,0.967,0.065,1.29,0.162V9.513z"/>
	<path fill="#241F20" d="M104.812,16.092c-0.774,2.773-3.321,5.095-7.385,5.095c-4.418,0-8.352-3.16-8.352-8.546
		c0-5.159,3.838-8.449,7.998-8.449c4.966,0,8.029,3.064,8.029,8.224c0,0.677-0.064,1.419-0.096,1.515H93.848
		c0.097,1.806,1.742,3.096,3.644,3.096c1.774,0,2.773-0.839,3.225-2.096L104.812,16.092z M100.362,10.771
		c-0.064-1.225-0.903-2.708-3.225-2.708c-2.064,0-3.096,1.515-3.192,2.708H100.362z"/>
	<path fill="#241F20" d="M112.52,20.703h-4.902V4.676h4.741v1.838c0.87-1.515,2.838-2.257,4.482-2.257
		c4.031,0,5.837,2.87,5.837,6.385v10.061h-4.902V11.48c0-1.58-0.838-2.773-2.612-2.773c-1.612,0-2.644,1.193-2.644,2.806V20.703z"/>
	<path fill="#241F20" d="M132.032,4.676h3.128v4.289h-3.128v5.998c0,1.322,0.709,1.677,1.773,1.677c0.517,0,1-0.097,1.29-0.162
		v4.064c-0.193,0.096-0.999,0.451-2.547,0.451c-3.322,0-5.353-1.966-5.353-5.159V8.965h-2.838V4.676h0.806
		c1.677,0,2.484-1.129,2.484-2.612V0h4.385V4.676z"/>
</g>
</svg>
